<svg width="50" height="50" viewBox="0 0 50 50" fill="none" xmlns="http://www.w3.org/2000/svg">
<path d="M25.3269 24.6189C23.072 24.6189 21.1417 23.816 19.5359 22.2102C17.9302 20.6045 17.1273 18.6742 17.1273 16.4193C17.1273 14.1644 17.9302 12.2341 19.5359 10.6283C21.1417 9.0226 23.072 8.21973 25.3269 8.21973C27.5817 8.21973 29.5121 9.0226 31.1178 10.6283C32.7236 12.2341 33.5264 14.1644 33.5264 16.4193C33.5264 18.6742 32.7236 20.6045 31.1178 22.2102C29.5121 23.816 27.5817 24.6189 25.3269 24.6189ZM8.92773 41.018V35.2783C8.92773 34.1167 9.22702 33.0494 9.82559 32.0764C10.4242 31.1033 11.2181 30.3599 12.2076 29.8461C14.3258 28.787 16.4782 27.993 18.6647 27.4641C20.8513 26.9352 23.072 26.6701 25.3269 26.6688C27.5817 26.6674 29.8025 26.9325 31.989 27.4641C34.1756 27.9957 36.328 28.7897 38.4462 29.8461C39.437 30.3586 40.2316 31.102 40.8302 32.0764C41.4288 33.0507 41.7274 34.1181 41.726 35.2783V41.018H8.92773Z" fill="white"/>
</svg>
