<svg width="590" height="774" viewBox="0 0 590 774" fill="none" xmlns="http://www.w3.org/2000/svg">
<path fill-rule="evenodd" clip-rule="evenodd" d="M0.724609 101.259L138.791 128.973V341.549L0.724609 345.176V101.259Z" fill="url(#paint0_linear_165_82)" fill-opacity="0.1"/>
<path fill-rule="evenodd" clip-rule="evenodd" d="M0.724609 464.835L138.791 471.369V688.862L0.724609 708.752V464.835Z" fill="url(#paint1_linear_165_82)" fill-opacity="0.1"/>
<path d="M563.166 390.057C570.55 390.057 576.777 394.238 582.134 402.602C587.346 410.532 589.808 420.193 589.808 432.017C589.808 469.075 589.808 585.873 589.808 660.422L498.588 692.577C498.588 655.519 498.588 538.577 498.588 464.029C486.57 464.029 452.833 464.029 428.797 464.029C428.797 501.087 428.797 648.454 428.797 723.002L290.664 773.182C290.664 736.124 290.664 538.577 290.664 464.029C290.664 445.572 290.664 355.162 290.664 318.104C290.664 299.647 290.664 276.287 290.664 248.313C290.664 220.34 290.664 37.0682 290.664 0.0101318C290.664 0.0101318 336.998 18.0345 391.441 39.8079C429.956 55.3809 472.525 72.6842 505.393 86.9595C539.854 101.812 589.808 118.25 589.808 162.373C589.808 190.347 589.808 292.581 589.808 348.673C589.808 359.92 587.346 369.87 582.134 378.089C576.777 386.019 570.55 390.057 563.166 390.057ZM498.588 318.104C498.588 290.13 498.588 262.156 498.588 234.182L428.797 211.4C428.797 230.001 428.797 280.613 428.797 318.104C440.96 318.104 474.697 318.104 498.588 318.104Z" fill="url(#paint2_linear_165_82)" fill-opacity="0.1"/>
<defs>
<linearGradient id="paint0_linear_165_82" x1="10.9717" y1="143.364" x2="125.982" y2="243.409" gradientUnits="userSpaceOnUse">
<stop stop-color="white" stop-opacity="0"/>
<stop offset="1" stop-color="#095052"/>
</linearGradient>
<linearGradient id="paint1_linear_165_82" x1="10.9717" y1="506.94" x2="125.982" y2="606.985" gradientUnits="userSpaceOnUse">
<stop stop-color="white" stop-opacity="0"/>
<stop offset="1" stop-color="#095052"/>
</linearGradient>
<linearGradient id="paint2_linear_165_82" x1="312.866" y1="133.474" x2="636.276" y2="325.771" gradientUnits="userSpaceOnUse">
<stop stop-color="white" stop-opacity="0"/>
<stop offset="1" stop-color="#095052"/>
</linearGradient>
</defs>
</svg>
