<svg width="198" height="72" viewBox="0 0 198 72" fill="none" xmlns="http://www.w3.org/2000/svg">
<path fill-rule="evenodd" clip-rule="evenodd" d="M9.81641 13.5972L21.8249 15.7059V31.8798L9.81641 32.1558V13.5972Z" fill="white"/>
<path fill-rule="evenodd" clip-rule="evenodd" d="M9.81641 41.9807L21.8249 42.4778V59.0259L9.81641 60.5394V41.9807Z" fill="white"/>
<path d="M57.699 36.2449C58.3458 36.2449 58.8911 36.5696 59.3603 37.2191C59.8169 37.835 60.0325 38.5853 60.0325 39.5035C60.0325 42.3813 60.0325 51.4515 60.0325 57.2408L52.043 59.7379C52.043 56.8601 52.043 47.7787 52.043 41.9894C50.9904 41.9894 48.0356 41.9894 45.9304 41.9894C45.9304 44.8672 45.9304 56.3114 45.9304 62.1007L33.832 65.9975C33.832 63.1197 33.832 47.7787 33.832 41.9894C33.832 40.5561 33.832 33.535 33.832 30.6572C33.832 29.2239 33.832 27.4098 33.832 25.2375C33.832 23.0651 33.832 8.83267 33.832 5.95483C33.832 5.95483 37.8902 7.35456 42.6585 9.04543C46.0318 10.2548 49.7603 11.5985 52.639 12.7071C55.6573 13.8605 60.0325 15.137 60.0325 18.5636C60.0325 20.7359 60.0325 28.6752 60.0325 33.0311C60.0325 33.9046 59.8169 34.6772 59.3603 35.3155C58.8911 35.9314 58.3458 36.2449 57.699 36.2449ZM52.043 30.6572C52.043 28.4848 52.043 26.3125 52.043 24.1401L45.9304 22.3708C45.9304 23.8153 45.9304 27.7458 45.9304 30.6572C46.9957 30.6572 49.9505 30.6572 52.043 30.6572Z" fill="white"/>
<path d="M80.104 24.7525L79.9813 26.5903C80.5949 25.8415 81.2698 25.2856 82.0061 24.9113C82.7424 24.5483 83.5523 24.3667 84.4236 24.3667C85.4789 24.3667 86.3993 24.6277 87.1846 25.1609C87.9577 25.6827 88.4363 26.2953 88.6327 26.9873C88.829 27.6793 88.9272 28.8478 88.9272 30.5041V39.2847C88.9272 41.1792 88.8045 42.5292 88.5591 43.3347C88.3136 44.1288 87.8105 44.7754 87.0619 45.2519C86.3011 45.7283 85.393 45.9666 84.3254 45.9666C83.4909 45.9666 82.6933 45.7851 81.9693 45.4107C81.2452 45.0363 80.5826 44.4918 79.9813 43.7657V48.5304H73.1338V24.7525H80.104ZM82.0674 30.8104C82.0674 29.5171 82.0184 28.7344 81.9202 28.4621C81.822 28.1898 81.5275 28.0537 81.0612 28.0537C80.6071 28.0537 80.3126 28.2125 80.1776 28.5302C80.0426 28.8365 79.9813 29.5965 79.9813 30.8104V39.4435C79.9813 40.6914 80.0549 41.4855 80.1899 41.7918C80.3249 42.1095 80.6194 42.2683 81.0857 42.2683C81.5275 42.2683 81.7975 42.1208 81.9079 41.8372C82.0184 41.5422 82.0674 40.8502 82.0674 39.7385V30.8104ZM106.684 32.0583V37.1633C106.684 39.0351 106.586 40.4078 106.377 41.2927C106.181 42.1662 105.739 42.983 105.076 43.7431C104.414 44.5031 103.555 45.059 102.499 45.422C101.456 45.7851 100.254 45.9666 98.9039 45.9666C97.3823 45.9666 96.0938 45.8078 95.0507 45.5015C93.9953 45.1952 93.1731 44.73 92.5964 44.1061C92.0073 43.4821 91.5901 42.7221 91.3447 41.8372C91.0993 40.9523 90.9765 39.625 90.9765 37.8553V32.5121C90.9765 30.5722 91.1974 29.0633 91.6515 27.9743C92.1055 26.8852 92.9154 26.0117 94.0935 25.3537C95.2716 24.6957 96.781 24.3667 98.6094 24.3667C100.143 24.3667 101.469 24.5709 102.573 25.002C103.678 25.4218 104.524 25.9777 105.126 26.6583C105.727 27.339 106.132 28.0423 106.353 28.757C106.574 29.4831 106.684 30.5835 106.684 32.0583ZM99.8366 30.4927C99.8366 29.4264 99.7752 28.7457 99.6525 28.4734C99.5298 28.2012 99.2598 28.0537 98.8426 28.0537C98.4376 28.0537 98.1676 28.2012 98.0204 28.4734C97.8854 28.7457 97.824 29.4264 97.824 30.4927V39.8973C97.824 40.8843 97.8854 41.5196 98.0204 41.8145C98.1676 42.1208 98.4253 42.2683 98.8303 42.2683C99.2353 42.2683 99.5052 42.1321 99.6402 41.8599C99.7752 41.5876 99.8366 40.9977 99.8366 40.1015V30.4927ZM115.765 24.7525L115.52 27.4865C116.526 25.5239 117.974 24.4802 119.876 24.3667V31.6953C118.612 31.6953 117.692 31.8427 117.09 32.1604C116.501 32.478 116.145 32.9091 116.01 33.4763C115.875 34.0322 115.802 35.3255 115.802 37.3448V45.5809H108.954V24.7525H115.765ZM129.227 21.9844V25.263H131.141V28.5755H129.227V39.7158C129.227 41.0771 129.3 41.8372 129.46 41.996C129.619 42.1548 130.27 42.2342 131.411 42.2342V45.5809H128.638C127.079 45.5809 125.95 45.5128 125.288 45.3994C124.613 45.2746 124.024 45.0023 123.521 44.5599C123.005 44.1288 122.686 43.641 122.563 43.0737C122.441 42.5179 122.379 41.2019 122.379 39.1372V28.5755H120.919V25.263H122.379V21.9844H129.227ZM138.737 32.8184H132.307V31.423C132.307 29.8007 132.516 28.5642 132.908 27.6793C133.313 26.8058 134.123 26.0344 135.338 25.3651C136.541 24.6957 138.111 24.3667 140.05 24.3667C142.37 24.3667 144.124 24.7411 145.302 25.5012C146.481 26.2613 147.18 27.1915 147.425 28.2919C147.659 29.4037 147.781 31.6726 147.781 35.1213V45.5809H141.106V43.7204C140.688 44.4691 140.136 45.025 139.486 45.3994C138.823 45.7737 138.038 45.9666 137.117 45.9666C135.915 45.9666 134.81 45.6489 133.804 45.025C132.81 44.401 132.307 43.0397 132.307 40.941V39.228C132.307 37.6624 132.577 36.6074 133.105 36.0402C133.645 35.4616 134.958 34.815 137.068 34.0549C139.326 33.2381 140.529 32.6936 140.688 32.41C140.848 32.1263 140.934 31.5478 140.934 30.6743C140.934 29.5852 140.848 28.8818 140.664 28.5528C140.492 28.2239 140.198 28.0537 139.78 28.0537C139.314 28.0537 139.019 28.2012 138.909 28.4734C138.799 28.7457 138.737 29.4717 138.737 30.6402V32.8184ZM140.934 35.6658C139.829 36.4145 139.179 37.0385 139.007 37.5376C138.823 38.0481 138.737 38.7628 138.737 39.7044C138.737 40.7935 138.811 41.4742 138.97 41.7918C139.118 42.1095 139.424 42.2683 139.891 42.2683C140.32 42.2683 140.602 42.1435 140.737 41.8939C140.872 41.6443 140.934 41.009 140.934 39.954V35.6658ZM157.194 20.1466V45.5809H150.137V20.1466H157.194Z" fill="white"/>
</svg>
