<svg width="48" height="50" viewBox="0 0 48 50" fill="none" xmlns="http://www.w3.org/2000/svg">
<path d="M23.6575 15.3388C18.4373 15.3388 14.2243 19.7309 14.2243 25.1731C14.2243 30.6153 18.4373 35.0074 23.6575 35.0074C28.8776 35.0074 33.0906 30.6153 33.0906 25.1731C33.0906 19.7309 28.8776 15.3388 23.6575 15.3388ZM23.6575 31.5647C20.2816 31.5647 17.5266 28.6925 17.5266 25.1731C17.5266 21.6536 20.2816 18.7815 23.6575 18.7815C27.0333 18.7815 29.7883 21.6536 29.7883 25.1731C29.7883 28.6925 27.0333 31.5647 23.6575 31.5647ZM33.4769 12.644C32.2581 12.644 31.2739 13.6701 31.2739 14.9408C31.2739 16.2114 32.2581 17.2375 33.4769 17.2375C34.6957 17.2375 35.68 16.2162 35.68 14.9408C35.6804 14.6391 35.6236 14.3402 35.513 14.0614C35.4024 13.7826 35.2402 13.5292 35.0355 13.3159C34.8309 13.1025 34.5879 12.9334 34.3204 12.8181C34.053 12.7028 33.7663 12.6437 33.4769 12.644ZM42.0454 25.1731C42.0454 22.5263 42.0684 19.9035 41.9258 17.2615C41.7832 14.1928 41.1117 11.4693 38.9593 9.22527C36.8022 6.97646 34.1944 6.2812 31.2509 6.13256C28.7121 5.98392 26.1963 6.0079 23.6621 6.0079C21.1233 6.0079 18.6074 5.98392 16.0732 6.13256C13.1297 6.2812 10.5173 6.98126 8.36483 9.22527C6.20777 11.4741 5.54087 14.1928 5.39829 17.2615C5.25572 19.9083 5.27871 22.5311 5.27871 25.1731C5.27871 27.8151 5.25572 30.4427 5.39829 33.0847C5.54087 36.1534 6.21237 38.8769 8.36483 41.1209C10.5219 43.3697 13.1297 44.065 16.0732 44.2136C18.612 44.3623 21.1278 44.3383 23.6621 44.3383C26.2009 44.3383 28.7167 44.3623 31.2509 44.2136C34.1944 44.065 36.8068 43.3649 38.9593 41.1209C41.1163 38.8721 41.7832 36.1534 41.9258 33.0847C42.073 30.4427 42.0454 27.8199 42.0454 25.1731ZM37.998 36.4795C37.6623 37.3521 37.2575 38.0042 36.609 38.6755C35.9605 39.3516 35.3396 39.7735 34.5026 40.1236C32.0833 41.1257 26.3388 40.9003 23.6575 40.9003C20.9761 40.9003 15.227 41.1257 12.8077 40.1284C11.9707 39.7783 11.3452 39.3564 10.7013 38.6803C10.0528 38.0042 9.64803 37.3569 9.31229 36.4843C8.35563 33.9573 8.5718 27.9685 8.5718 25.1731C8.5718 22.3777 8.35563 16.384 9.31229 13.8619C9.64803 12.9893 10.0528 12.3372 10.7013 11.6659C11.3498 10.9946 11.9707 10.5678 12.8077 10.2178C15.227 9.22048 20.9761 9.44584 23.6575 9.44584C26.3388 9.44584 32.088 9.22048 34.5072 10.2178C35.3442 10.5678 35.9697 10.9898 36.6136 11.6659C37.2621 12.342 37.6669 12.9893 38.0026 13.8619C38.9593 16.384 38.7431 22.3777 38.7431 25.1731C38.7431 27.9685 38.9593 33.9573 37.998 36.4795Z" fill="white"/>
</svg>
