<svg width="620" height="631" viewBox="0 0 620 631" fill="none" xmlns="http://www.w3.org/2000/svg">
<path fill-rule="evenodd" clip-rule="evenodd" d="M0.818359 83.2271L145.891 105.797V278.915L0.818359 281.869V83.2271Z" fill="url(#paint0_linear_165_325)" fill-opacity="0.1"/>
<path fill-rule="evenodd" clip-rule="evenodd" d="M0.818359 379.318L145.891 384.638V561.761L0.818359 577.96V379.318Z" fill="url(#paint1_linear_165_325)" fill-opacity="0.1"/>
<path d="M591.804 318.419C599.563 318.419 606.105 321.825 611.734 328.636C617.211 335.095 619.798 342.962 619.798 352.592C619.798 382.771 619.798 477.889 619.798 538.6L523.948 564.787C523.948 534.608 523.948 439.372 523.948 378.661C511.321 378.661 475.872 378.661 450.616 378.661C450.616 408.84 450.616 528.854 450.616 589.565L305.473 630.431C305.473 600.251 305.473 439.372 305.473 378.661C305.473 363.63 305.473 290.001 305.473 259.822C305.473 244.791 305.473 225.767 305.473 202.986C305.473 180.205 305.473 30.9513 305.473 0.77179C305.473 0.77179 354.158 15.4505 411.363 33.1824C451.833 45.8648 496.563 59.9564 531.099 71.582C567.309 83.6772 619.798 97.0643 619.798 132.998C619.798 155.779 619.798 239.037 619.798 284.717C619.798 293.877 617.211 301.979 611.734 308.673C606.105 315.131 599.563 318.419 591.804 318.419ZM523.948 259.822C523.948 237.041 523.948 214.259 523.948 191.478L450.616 172.924C450.616 188.072 450.616 229.29 450.616 259.822C463.396 259.822 498.845 259.822 523.948 259.822Z" fill="url(#paint2_linear_165_325)" fill-opacity="0.1"/>
<defs>
<linearGradient id="paint0_linear_165_325" x1="11.5855" y1="117.517" x2="105.533" y2="222.959" gradientUnits="userSpaceOnUse">
<stop stop-color="white" stop-opacity="0"/>
<stop offset="1" stop-color="#095052"/>
</linearGradient>
<linearGradient id="paint1_linear_165_325" x1="11.5855" y1="413.607" x2="105.533" y2="519.049" gradientUnits="userSpaceOnUse">
<stop stop-color="white" stop-opacity="0"/>
<stop offset="1" stop-color="#095052"/>
</linearGradient>
<linearGradient id="paint2_linear_165_325" x1="328.801" y1="109.463" x2="618.352" y2="331.596" gradientUnits="userSpaceOnUse">
<stop stop-color="white" stop-opacity="0"/>
<stop offset="1" stop-color="#095052"/>
</linearGradient>
</defs>
</svg>
