<svg width="151" height="50" viewBox="0 0 151 50" fill="none" xmlns="http://www.w3.org/2000/svg">
<path fill-rule="evenodd" clip-rule="evenodd" d="M7.50781 9.2157L16.6847 10.6991V22.0769L7.50781 22.2711V9.2157Z" fill="#095052"/>
<path fill-rule="evenodd" clip-rule="evenodd" d="M7.50781 29.1826L16.6847 29.5323V41.1734L7.50781 42.238V29.1826Z" fill="#095052"/>
<path d="M44.1003 25.1473C44.5946 25.1473 45.0113 25.3757 45.3699 25.8326C45.7188 26.2659 45.8835 26.7936 45.8835 27.4396C45.8835 29.464 45.8835 35.8446 45.8835 39.9172L39.778 41.6738C39.778 39.6494 39.778 33.2609 39.778 29.1883C38.9736 29.1883 36.7156 29.1883 35.1068 29.1883C35.1068 31.2128 35.1068 39.2634 35.1068 43.3359L25.8613 46.0772C25.8613 44.0528 25.8613 33.2609 25.8613 29.1883C25.8613 28.18 25.8613 23.241 25.8613 21.2165C25.8613 20.2082 25.8613 18.9321 25.8613 17.4039C25.8613 15.8757 25.8613 5.8637 25.8613 3.83923C25.8613 3.83923 28.9625 4.82389 32.6065 6.01336C35.1843 6.86411 38.0336 7.80938 40.2335 8.58923C42.54 9.4006 45.8835 10.2986 45.8835 12.7091C45.8835 14.2372 45.8835 19.8222 45.8835 22.8865C45.8835 23.5009 45.7188 24.0445 45.3699 24.4935C45.0113 24.9267 44.5946 25.1473 44.1003 25.1473ZM39.778 21.2165C39.778 19.6883 39.778 18.1601 39.778 16.6319L35.1068 15.3873C35.1068 16.4035 35.1068 19.1684 35.1068 21.2165C35.9209 21.2165 38.179 21.2165 39.778 21.2165Z" fill="#095052"/>
<path d="M60.5434 18.4323L60.4496 19.7251C60.9185 19.1984 61.4343 18.8074 61.9969 18.544C62.5596 18.2887 63.1785 18.161 63.8444 18.161C64.6509 18.161 65.3542 18.3445 65.9544 18.7196C66.5452 19.0867 66.9109 19.5177 67.061 20.0045C67.211 20.4913 67.286 21.3133 67.286 22.4784V28.6553C67.286 29.988 67.1922 30.9377 67.0047 31.5043C66.8171 32.0629 66.4326 32.5178 65.8606 32.853C65.2792 33.1881 64.5852 33.3557 63.7694 33.3557C63.1317 33.3557 62.5221 33.2281 61.9688 32.9647C61.4155 32.7013 60.9091 32.3183 60.4496 31.8075V35.1593H55.2168V18.4323H60.5434ZM62.0438 22.6939C62.0438 21.7841 62.0063 21.2335 61.9313 21.0419C61.8563 20.8504 61.6312 20.7546 61.2749 20.7546C60.9279 20.7546 60.7028 20.8664 60.5997 21.0898C60.4965 21.3053 60.4496 21.84 60.4496 22.6939V28.767C60.4496 29.6448 60.5059 30.2035 60.609 30.4189C60.7122 30.6424 60.9373 30.7541 61.2936 30.7541C61.6312 30.7541 61.8375 30.6504 61.9219 30.4509C62.0063 30.2434 62.0438 29.7566 62.0438 28.9745V22.6939ZM80.8557 23.5717V27.1629C80.8557 28.4797 80.7807 29.4453 80.6212 30.0678C80.4712 30.6823 80.1336 31.2569 79.6272 31.7916C79.1208 32.3263 78.4644 32.7173 77.6579 32.9727C76.8608 33.2281 75.9417 33.3557 74.9102 33.3557C73.7473 33.3557 72.7627 33.244 71.9655 33.0285C71.1591 32.8131 70.5307 32.4859 70.09 32.0469C69.6399 31.608 69.321 31.0733 69.1334 30.4509C68.9459 29.8284 68.8521 28.8947 68.8521 27.6497V23.8909C68.8521 22.5263 69.0209 21.4649 69.3679 20.6988C69.7149 19.9326 70.3338 19.3181 71.2341 18.8553C72.1343 18.3924 73.2878 18.161 74.6851 18.161C75.8573 18.161 76.8701 18.3046 77.7141 18.6079C78.5581 18.9032 79.2052 19.2942 79.6647 19.773C80.1242 20.2519 80.4337 20.7466 80.6025 21.2494C80.7713 21.7602 80.8557 22.5343 80.8557 23.5717ZM75.6229 22.4704C75.6229 21.7203 75.576 21.2414 75.4822 21.0499C75.3884 20.8584 75.1821 20.7546 74.8633 20.7546C74.5538 20.7546 74.3475 20.8584 74.235 21.0499C74.1318 21.2414 74.0849 21.7203 74.0849 22.4704V29.0862C74.0849 29.7805 74.1318 30.2274 74.235 30.4349C74.3475 30.6504 74.5444 30.7541 74.8539 30.7541C75.1634 30.7541 75.3697 30.6583 75.4728 30.4668C75.576 30.2753 75.6229 29.8603 75.6229 29.2299V22.4704ZM87.7953 18.4323L87.6077 20.3556C88.3767 18.975 89.4833 18.2408 90.9368 18.161V23.3163C89.9709 23.3163 89.2676 23.4201 88.8081 23.6435C88.3579 23.867 88.086 24.1703 87.9828 24.5693C87.8797 24.9603 87.8234 25.8701 87.8234 27.2906V33.0844H82.5906V18.4323H87.7953ZM98.0827 16.4851V18.7914H99.5456V21.1217H98.0827V28.9585C98.0827 29.9162 98.139 30.4509 98.2609 30.5626C98.3828 30.6743 98.8798 30.7302 99.752 30.7302V33.0844H97.6326C96.4416 33.0844 95.5788 33.0365 95.0724 32.9567C94.5567 32.8689 94.1065 32.6774 93.722 32.3662C93.3282 32.0629 93.0843 31.7197 92.9906 31.3207C92.8968 30.9297 92.8499 30.004 92.8499 28.5515V21.1217H91.7339V18.7914H92.8499V16.4851H98.0827ZM105.351 24.1064H100.437V23.1248C100.437 21.9836 100.596 21.1137 100.896 20.4913C101.206 19.8768 101.824 19.3341 102.753 18.8633C103.672 18.3924 104.872 18.161 106.354 18.161C108.126 18.161 109.467 18.4243 110.368 18.959C111.268 19.4937 111.802 20.1481 111.99 20.9222C112.168 21.7043 112.262 23.3004 112.262 25.7264V33.0844H107.16V31.7756C106.842 32.3023 106.42 32.6934 105.923 32.9567C105.416 33.2201 104.816 33.3557 104.113 33.3557C103.194 33.3557 102.35 33.1323 101.581 32.6934C100.821 32.2544 100.437 31.2968 100.437 29.8204V28.6154C100.437 27.5141 100.643 26.7719 101.046 26.3729C101.459 25.9659 102.462 25.511 104.075 24.9763C105.801 24.4017 106.72 24.0186 106.842 23.8191C106.963 23.6196 107.029 23.2126 107.029 22.5981C107.029 21.832 106.963 21.3372 106.823 21.1058C106.692 20.8743 106.466 20.7546 106.148 20.7546C105.791 20.7546 105.566 20.8584 105.482 21.0499C105.397 21.2414 105.351 21.7522 105.351 22.5742V24.1064ZM107.029 26.1095C106.185 26.6362 105.688 27.0751 105.557 27.4263C105.416 27.7854 105.351 28.2882 105.351 28.9505C105.351 29.7167 105.407 30.1955 105.529 30.4189C105.641 30.6424 105.876 30.7541 106.232 30.7541C106.56 30.7541 106.776 30.6663 106.879 30.4908C106.982 30.3152 107.029 29.8683 107.029 29.1261V26.1095ZM119.455 15.1923V33.0844H114.062V15.1923H119.455Z" fill="#095052"/>
</svg>
