<svg width="36" height="67" viewBox="0 0 36 67" fill="none" xmlns="http://www.w3.org/2000/svg">
<path d="M32.6116 33.7476C33.4748 33.7476 34.2026 34.1074 34.8288 34.827C35.4381 35.5094 35.7259 36.3407 35.7259 37.3581C35.7259 40.5466 35.7259 50.5963 35.7259 57.0107L25.0628 59.7774C25.0628 56.5888 25.0628 46.5268 25.0628 40.1124C23.658 40.1124 19.7144 40.1124 16.9047 40.1124C16.9047 43.301 16.9047 55.9809 16.9047 62.3953L0.757812 66.7129C0.757812 63.5243 0.757812 46.5268 0.757812 40.1124C0.757812 38.5243 0.757812 30.7452 0.757812 27.5566C0.757812 25.9685 0.757812 23.9586 0.757812 21.5516C0.757812 19.1447 0.757812 3.37542 0.757812 0.186829C0.757812 0.186829 6.17397 1.7377 12.538 3.61115C17.0401 4.9511 22.0162 6.43993 25.8583 7.66822C29.8866 8.94614 35.7259 10.3605 35.7259 14.1571C35.7259 16.564 35.7259 25.3605 35.7259 30.1868C35.7259 31.1546 35.4381 32.0107 34.8288 32.7179C34.2026 33.4002 33.4748 33.7476 32.6116 33.7476ZM25.0628 27.5566C25.0628 25.1496 25.0628 22.7427 25.0628 20.3357L16.9047 18.3754C16.9047 19.9759 16.9047 24.3308 16.9047 27.5566C18.3265 27.5566 22.2701 27.5566 25.0628 27.5566Z" fill="#095052"/>
</svg>
