<svg width="48" height="49" viewBox="0 0 48 49" fill="none" xmlns="http://www.w3.org/2000/svg">
<path fill-rule="evenodd" clip-rule="evenodd" d="M39.5091 9.54843C39.9918 9.34061 40.5202 9.26893 41.0392 9.34086C41.5582 9.41279 42.0488 9.62569 42.4601 9.9574C42.8713 10.2891 43.1882 10.7275 43.3776 11.227C43.567 11.7264 43.622 12.2687 43.537 12.7973L39.1067 40.2849C38.6769 42.9363 35.8327 44.4569 33.4554 43.1361C31.4668 42.0312 28.5133 40.3288 25.8566 38.5525C24.5283 37.6634 20.4593 34.8161 20.9594 32.7901C21.3891 31.0578 28.2261 24.548 32.1329 20.6777C33.6664 19.1572 32.9671 18.28 31.1562 19.6787C26.6595 23.1514 19.4396 28.4323 17.0525 29.9188C14.9467 31.2296 13.8489 31.4534 12.5362 31.2296C10.1413 30.822 7.92025 30.1906 6.10748 29.4213C3.65788 28.3823 3.77704 24.9376 6.10552 23.9346L39.5091 9.54843Z" fill="white"/>
</svg>
