<svg width="54" height="35" viewBox="0 0 54 35" fill="none" xmlns="http://www.w3.org/2000/svg">
<path d="M21.5764 24.5066L35.225 17.1709L21.5764 9.83515V24.5066ZM51.9767 5.36037C52.3186 6.50963 52.5553 8.05013 52.7131 10.0063C52.8971 11.9625 52.976 13.6497 52.976 15.1169L53.1338 17.1709C53.1338 22.5259 52.7131 26.4628 51.9767 28.9814C51.3193 31.1821 49.794 32.6003 47.4272 33.2116C46.1912 33.5295 43.9296 33.7496 40.4583 33.8963C37.0395 34.0675 33.9101 34.1408 31.0173 34.1408L26.836 34.2875C15.8171 34.2875 8.95341 33.8963 6.24472 33.2116C3.87792 32.6003 2.35264 31.1821 1.69519 28.9814C1.35332 27.8321 1.11664 26.2916 0.958852 24.3354C0.774767 22.3792 0.695873 20.692 0.695873 19.2249L0.538086 17.1709C0.538086 11.8158 0.958852 7.87896 1.69519 5.36037C2.35264 3.15965 3.87792 1.74141 6.24472 1.1301C7.48072 0.812223 9.74234 0.592151 13.2137 0.445437C16.6324 0.27427 19.7618 0.200913 22.6546 0.200913L26.836 0.0541992C37.8548 0.0541992 44.7185 0.445438 47.4272 1.1301C49.794 1.74141 51.3193 3.15965 51.9767 5.36037Z" fill="white"/>
</svg>
